# xmcd CD database file
#
# Track frame offsets:
#	150
#	11637
#	28015
#	50640
#	97112
#	119202
#	134127
#	142115
#	156377
#	174022
#	193057
#	219605
#	234347
#
# Disc length: 3284 seconds
#
# Revision: 0
# Processed by: cddbd v1.5PL3 Copyright (c) Steve Scherf et al.
# Submitted via: CDex 1.50beta10
#
DISCID=c80cd20d
DTITLE=Boat - LISTENING SUICIDAL
DYEAR=2000
DGENRE=Rock
TTITLE0=LISTENING 40 (burn up the club '99)
TTITLE1=PLANET FOXY
TTITLE2=狂言メッセージ
TTITLE3=グッバイ　マイ　ストレンジ　ナンバー　28
TTITLE4=銀色うつ時間
TTITLE5=ラッキースイサイダル
TTITLE6=PRETEND
TTITLE7=代打デストロイ＆サーチ
TTITLE8=NO MESSAGE
TTITLE9=紋味
TTITLE10=雲番人Bと釣人A
TTITLE11=DON'T YOU
TTITLE12=LISTENING 40 (close your eyes '00)
EXTD=YEAR: 2000
EXTT0=
EXTT1=
EXTT2=
EXTT3=
EXTT4=
EXTT5=
EXTT6=
EXTT7=
EXTT8=
EXTT9=
EXTT10=
EXTT11=
EXTT12=
PLAYORDER=
